<?xml version="1.0" encoding="UTF-8"?>
<svg xmlns="http://www.w3.org/2000/svg" xmlns:xlink="http://www.w3.org/1999/xlink" width="375pt" height="374.999991pt" viewBox="0 0 375 374.999991" version="1.2">
<defs>
<clipPath id="clip1">
  <path d="M 39 54.558594 L 336 54.558594 L 336 320.808594 L 39 320.808594 Z M 39 54.558594 "/>
</clipPath>
</defs>
<g id="surface1">
<path style=" stroke:none;fill-rule:nonzero;fill:rgb(50.19989%,35.289001%,83.529663%);fill-opacity:1;" d="M 205.140625 133.042969 C 202.992188 143.070312 218.351562 147.347656 220.496094 137.300781 C 223.476562 123.410156 241.398438 123.386719 244.359375 137.300781 C 246.503906 147.328125 261.863281 143.09375 259.714844 133.042969 C 253.515625 103.949219 211.363281 103.925781 205.140625 133.042969 "/>
<g clip-path="url(#clip1)" clip-rule="nonzero">
<path style=" stroke:none;fill-rule:nonzero;fill:rgb(50.19989%,35.289001%,83.529663%);fill-opacity:1;" d="M 319.332031 185.878906 C 319.332031 186.691406 318.675781 187.347656 317.867188 187.347656 L 301.34375 187.347656 C 300.535156 187.347656 299.878906 186.691406 299.878906 185.878906 L 299.878906 122.578125 C 299.878906 121.742188 300.535156 121.085938 301.34375 121.085938 L 317.867188 121.085938 C 318.675781 121.085938 319.332031 121.742188 319.332031 122.578125 Z M 283.949219 122.578125 L 283.949219 219.867188 C 283.949219 232.351562 273.804688 242.488281 261.359375 242.488281 L 113.335938 242.488281 C 100.890625 242.488281 90.746094 232.351562 90.746094 219.867188 L 90.746094 93.109375 C 90.746094 80.625 100.890625 70.488281 113.335938 70.488281 L 261.359375 70.488281 C 273.804688 70.488281 283.949219 80.625 283.949219 93.109375 Z M 74.816406 185.878906 C 74.816406 186.691406 74.160156 187.347656 73.351562 187.347656 L 56.808594 187.347656 C 55.996094 187.347656 55.339844 186.691406 55.339844 185.878906 L 55.339844 122.578125 C 55.339844 121.742188 55.996094 121.085938 56.808594 121.085938 L 73.351562 121.085938 C 74.160156 121.085938 74.816406 121.742188 74.816406 122.578125 Z M 167.191406 289.839844 L 205.183594 289.839844 C 209.34375 289.839844 212.71875 293.21875 212.71875 297.363281 C 212.71875 301.535156 209.34375 304.914062 205.183594 304.914062 L 167.191406 304.914062 C 163.050781 304.914062 159.675781 301.535156 159.675781 297.363281 C 159.675781 293.21875 163.050781 289.839844 167.191406 289.839844 Z M 317.867188 105.132812 L 301.34375 105.132812 C 300.839844 105.132812 300.359375 105.175781 299.878906 105.222656 L 299.878906 93.109375 C 299.878906 71.824219 282.589844 54.535156 261.359375 54.535156 L 113.335938 54.535156 C 92.082031 54.535156 74.816406 71.824219 74.816406 93.109375 L 74.816406 105.222656 C 74.335938 105.175781 73.832031 105.132812 73.351562 105.132812 L 56.808594 105.132812 C 47.210938 105.132812 39.410156 112.945312 39.410156 122.578125 L 39.410156 185.878906 C 39.410156 195.488281 47.210938 203.300781 56.808594 203.300781 L 57.113281 203.300781 L 57.113281 253.746094 C 57.113281 282.203125 80.230469 305.351562 108.648438 305.351562 L 145.148438 305.351562 C 148.4375 314.371094 157.046875 320.863281 167.191406 320.863281 L 205.183594 320.863281 C 218.132812 320.863281 228.648438 310.332031 228.648438 297.363281 C 228.648438 284.417969 218.132812 273.886719 205.183594 273.886719 L 167.191406 273.886719 C 157.046875 273.886719 148.4375 280.359375 145.148438 289.398438 L 108.648438 289.398438 C 89.015625 289.398438 73.042969 273.40625 73.042969 253.746094 L 73.042969 203.300781 L 73.351562 203.300781 C 73.832031 203.300781 74.335938 203.257812 74.816406 203.234375 L 74.816406 219.867188 C 74.816406 241.148438 92.082031 258.441406 113.335938 258.441406 L 261.359375 258.441406 C 282.589844 258.441406 299.878906 241.148438 299.878906 219.867188 L 299.878906 203.234375 C 300.359375 203.257812 300.839844 203.300781 301.34375 203.300781 L 317.867188 203.300781 C 327.460938 203.300781 335.285156 195.488281 335.285156 185.878906 L 335.285156 122.578125 C 335.285156 112.945312 327.460938 105.132812 317.867188 105.132812 "/>
</g>
<path style=" stroke:none;fill-rule:nonzero;fill:rgb(50.19989%,35.289001%,83.529663%);fill-opacity:1;" d="M 221.789062 192.417969 C 198.808594 201.238281 175.867188 201.238281 152.90625 192.417969 C 143.332031 188.730469 139.167969 204.15625 148.675781 207.796875 C 173.960938 217.519531 200.734375 217.519531 226.019531 207.796875 C 235.507812 204.15625 231.386719 188.730469 221.789062 192.417969 "/>
<path style=" stroke:none;fill-rule:nonzero;fill:rgb(50.19989%,35.289001%,83.529663%);fill-opacity:1;" d="M 154.175781 137.300781 C 156.324219 147.328125 171.683594 143.09375 169.558594 133.042969 C 163.335938 103.949219 121.179688 103.925781 114.957031 133.042969 C 112.832031 143.070312 128.191406 147.347656 130.339844 137.300781 C 133.296875 123.410156 151.21875 123.386719 154.175781 137.300781 "/>
</g>
</svg>
